<svg width="262" height="180" viewBox="0 0 262 180" fill="none" xmlns="http://www.w3.org/2000/svg">
<path d="M198 45H247L232 90H183L198 45Z" fill="#D40000"/>
<path d="M168 135H217L202 180H153L168 135Z" fill="#D40000"/>
<path d="M183 90H232L217 135H168L183 90Z" fill="white"/>
<path d="M149 45H198L183 90H134L149 45Z" fill="white"/>
<path d="M114 0H163L148 45H99L114 0Z" fill="#D40000"/>
<path d="M50 45H99L84 90H35L50 45Z" fill="white"/>
<path d="M15 0H64L49 45H0L15 0Z" fill="white"/>
<path d="M119 135H168L153 180H104L119 135Z" fill="white"/>
<path d="M214 0H262L247 45H198L214 0Z" fill="white"/>
</svg>
