<svg width="262" height="180" viewBox="0 0 262 180" fill="none" xmlns="http://www.w3.org/2000/svg">
<path d="M196.86 48.4189C197.541 46.3771 199.452 45 201.604 45H240.063C243.476 45 245.886 48.3435 244.806 51.5811L233.14 86.5811C232.459 88.6229 230.548 90 228.396 90H189.937C186.524 90 184.114 86.6565 185.194 83.4189L196.86 48.4189Z" fill="#D40000"/>
<path d="M166.86 138.419C167.541 136.377 169.452 135 171.604 135H210.063C213.476 135 215.886 138.343 214.806 141.581L203.14 176.581C202.459 178.623 200.548 180 198.396 180H159.937C156.524 180 154.114 176.657 155.194 173.419L166.86 138.419Z" fill="#D40000"/>
<path d="M181.86 93.4189C182.541 91.3771 184.452 90 186.604 90H225.063C228.476 90 230.886 93.3435 229.806 96.5811L218.14 131.581C217.459 133.623 215.548 135 213.396 135H174.937C171.524 135 169.114 131.657 170.194 128.419L181.86 93.4189Z" fill="black"/>
<path d="M147.86 48.4189C148.541 46.3771 150.452 45 152.604 45H191.063C194.476 45 196.886 48.3435 195.806 51.5811L184.14 86.5811C183.459 88.6229 181.548 90 179.396 90H140.937C137.524 90 135.114 86.6565 136.194 83.4189L147.86 48.4189Z" fill="black"/>
<path d="M112.86 3.41886C113.541 1.37715 115.452 0 117.604 0H156.063C159.476 0 161.886 3.34348 160.806 6.58114L149.14 41.5811C148.459 43.6229 146.548 45 144.396 45H105.937C102.524 45 100.114 41.6565 101.194 38.4189L112.86 3.41886Z" fill="#D40000"/>
<path d="M48.8604 48.4189C49.541 46.3771 51.4516 45 53.6038 45H92.0629C95.4757 45 97.8855 48.3435 96.8063 51.5811L85.1396 86.5811C84.459 88.6229 82.5484 90 80.3962 90H41.9371C38.5243 90 36.1145 86.6565 37.1937 83.4189L48.8604 48.4189Z" fill="black"/>
<path d="M13.8604 3.41886C14.541 1.37715 16.4516 0 18.6038 0H57.0629C60.4757 0 62.8855 3.34348 61.8063 6.58114L50.1396 41.5811C49.459 43.6229 47.5484 45 45.3962 45H6.93713C3.52434 45 1.11449 41.6565 2.19371 38.4189L13.8604 3.41886Z" fill="black"/>
<path d="M117.86 138.419C118.541 136.377 120.452 135 122.604 135H161.063C164.476 135 166.886 138.343 165.806 141.581L154.14 176.581C153.459 178.623 151.548 180 149.396 180H110.937C107.524 180 105.114 176.657 106.194 173.419L117.86 138.419Z" fill="black"/>
<path d="M212.818 3.32496C213.527 1.33156 215.413 0 217.529 0H255.063C258.476 0 260.886 3.34348 259.806 6.58114L248.14 41.5811C247.459 43.6229 245.548 45 243.396 45H205.084C201.63 45 199.216 41.58 200.373 38.325L212.818 3.32496Z" fill="black"/>
</svg>
